<svg width="100" height="100" xmlns="http://www.w3.org/2000/svg" xmlns:xlink="http://www.w3.org/1999/xlink" id="svg83" overflow="hidden"><defs id="defs77"><pattern width="6" height="6" patternUnits="userSpaceOnUse" id="WMFhbasepattern" overflow="hidden"></pattern></defs><path d="M100 50 99.92 52.56 99.44 57.6 98.48 62.48 96.96 67.2 95.12 71.68 92.8 75.92 90.08 79.92 87.04 83.6 83.6 87.04 79.92 90.08 75.92 92.8 71.68 95.12 67.2 96.96 62.48 98.48 57.6 99.44 52.56 99.92 50 100 47.44 99.92 42.4 99.44 37.52 98.48 32.8 96.96 28.32 95.12 24.08 92.8 20.08 90.08 16.4 87.04 12.96 83.6 9.92 79.92 7.2 75.92 4.88 71.68 3.04 67.2 1.52 62.48 0.56 57.6 0.08 52.56 0 50 0.08 47.44 0.56 42.4 1.52 37.52 3.04 32.8 4.88 28.32 7.2 24.08 9.92 20.08 12.96 16.4 16.4 12.96 20.08 9.92 24.08 7.2 28.32 4.88 32.8 3.04 37.52 1.52 42.4 0.56 47.44 0.08 50 0 52.56 0.08 57.6 0.56 62.48 1.52 67.2 3.04 71.68 4.88 75.92 7.2 79.92 9.92 83.6 12.96 87.04 16.4 90.08 20.08 92.8 24.08 95.12 28.32 96.96 32.8 98.48 37.52 99.44 42.4 99.92 47.44 100 50Z" id="path79" fill="#26A4E3" fill-rule="evenodd"/><path d="M22.64 49.52 42.08 41.12 51.68 36.88 60.72 33.12 67.36 30.72 69.68 30.16 70.4 30.08 71.28 30.16 72.4 30.72 72.96 31.44 73.12 32.08 73.28 32.96 73.2 34.08 72.32 41.44 68.96 62.08 67.52 70 67.2 71.28 66.48 73.28 65.6 74.48 64.56 75.04 64.08 75.12 63.04 75.12 61.04 74.48 58.24 72.8 56.24 71.36 50.56 67.6 45.04 63.92 44.16 63.28 42.96 62.24 42.48 61.2 42.48 60.32 43.92 58 46.08 55.92 48.16 54 58.08 44.56 59.92 42.48 59.92 42.16 59.68 41.6 59.2 41.36 58.72 41.52 54.72 43.92 37.6 55.36 36.16 56.32 33.44 57.36 32.24 57.36 30.64 57.28 26.48 56.24 24.4 55.6 22.16 54.88 19.76 53.92 19.04 52.96 19.04 52.32 19.04 51.92 19.52 51.2 21.04 50.16 22.64 49.52Z" id="path81" fill="#FFFFFF" fill-rule="evenodd"/></svg>