<svg viewBox="0 0 75 75" xmlns="http://www.w3.org/2000/svg" xmlns:xlink="http://www.w3.org/1999/xlink" id="Eitaa" overflow="hidden"><path d="M54.1 75 20.9 75 18.8 74.9 14.7 74.1 10.9 72.5 7.6 70.3 4.7 67.4 2.5 64.1 0.9 60.3 0.1 56.2 0 54.1 0 20.9 0.1 18.8 0.9 14.7 2.5 10.9 4.7 7.6 7.6 4.7 10.9 2.5 14.7 0.9 18.8 0.1 20.9 0 54.4 0 56.5 0.1 60.5 0.9 64.1 2.5 67.4 4.7 70.3 7.6 72.5 10.9 74.1 14.7 74.9 18.8 75 20.9 75 54.4 74.9 56.5 74.1 60.5 72.5 64.1 70.3 67.4 67.4 70.3 64.1 72.5 60.3 74.1 56.2 74.9Z" id="Background" fill="#EF7C00"/><path d="M73.7 32.5 72.3 33.5 68.8 37 66.5 39.4 63.7 42.4 58.8 47 57.2 48.4 55.6 49.7 52.7 51.7 49.9 53.2 47 54.1 45.6 54.4 44 54.5 40 54.4 38.4 54.1 37.3 53.8 36.5 54.3 36.2 55.6 35.8 56.8 35.3 59.2 35.3 60.3 35.3 61.6 34.7 61.6 33.3 61.3 30.6 59.9 28.2 57.8 26.3 55.2 25.7 53.8 25.1 51.9 24.7 50 24.7 49.1 23.8 48.2 22.4 46.8 20.8 44.3 20.2 42.5 20 41.6 19.9 40.1 20.2 37 21.4 33.9 23.3 30.9 24.7 29.5 26.2 28 29.8 25.3 33.8 23.2 38 21.6 40.3 21.1 42.1 20.8 46.2 20.6 47.8 20.8 49.1 21.1 51.5 22 53.6 23.2 55.3 24.8 55.9 25.8 56.3 26.4 56.5 27.1 56.5 27.7 56.5 28.1 56.1 29 55.9 29.2 55.2 29.9 53.2 31.4 50.5 32.8 47.3 34.1 45.6 34.6 44.1 34.9 41.3 35.1 38.9 35 36.8 34.5 35.2 33.7 34 32.6 33.2 31.3 33 29.6 33.2 28.7 33.2 27.8 32.7 28 31.3 28.7 30.7 29.1 29.6 30.2 28.8 31.6 28.3 33.1 28.1 33.8 28 34.7 28.1 35.9 28.1 36.6 28.3 37.6 28.7 38.1 29.3 39.2 30 40 30.6 40.6 30.3 40.9 29 43 28.1 44.9 27.8 46.3 27.7 49.1 27.8 50.5 28.1 51.8 29.3 54.2 30 55.2 30.6 56 32.4 57.5 32.9 57.7 32.9 57.4 33.2 55.5 33.8 53.3 34.3 52.1 35.8 49.7 38 47.6 40.8 45.8 42.5 44.9 44.4 44 47.6 42.4 50.5 41.1 54.3 39.1 55.4 38.4 56.7 37.4 58.9 35 60.6 32.2 61.7 28.9 62 27.1 62.3 25.4 62.5 21.5 62.3 19.9 62 18.5 61.3 16 60 13.6 58.4 11.5 56.5 9.7 54.1 8.3 51.6 7.1 48.8 6.4 47.3 6.2 45.5 6.1 41.9 6.5 38.2 7.6 34.5 9.3 30.8 11.6 27.2 14.3 23.9 17.6 20.8 21.4 19.4 23.4 18.2 25.3 16 29.4 14.2 33.7 13 38 12.5 40.3 12.3 42.2 12.1 47.2 12.2 49 12.5 51 13.4 54.7 14.9 57.8 16.9 60.7 18.2 61.9 19.4 63.1 22.4 65.2 24.1 65.9 25.5 66.5 28.3 67.6 31.3 68.2 34.1 68.6 37 68.6 39.9 68.4 42.7 67.8 45.5 66.8 46.9 66.2 49.2 65 53.9 61.6 56.3 59.3 58.5 57 63.5 50.7 67.5 45.3 69.8 42.2 72.7 38.8 74.2 37.5 74.7 37.2 75 36.9 75 32.5 75 31.6Z" id="Content" fill="#FFFFFF"/></svg>